<svg id="Layer_5" enable-background="new 0 0 64 64" height="512" viewBox="0 0 64 64" width="512" xmlns="http://www.w3.org/2000/svg"><g><g><circle cx="14" cy="14" fill="#f0bc5e" r="9"/></g><g><path d="m36 38c-1.105 0-2-.895-2-2v-12c0-1.105.895-2 2-2h3v-2.465c0-.848.687-1.535 1.535-1.535.303 0 .599.09.852.258l5.613 3.742h8v-7c0-1.103-.897-2-2-2h-27.05c.027.331.05.662.05 1 0 6.627-5.373 12-12 12-1.787 0-3.476-.401-5-1.102v16.102c0 1.103.897 2 2 2h42c1.103 0 2-.897 2-2v-3z" fill="#f0bc5e"/></g><g><path d="m11 45h2v2h-2z"/><path d="m15 45h2v2h-2z"/><path d="m19 45h2v2h-2z"/><path d="m60 21h-1v-7c0-2.757-2.243-5-5-5h-28.003c-1.963-4.693-6.6-8-11.997-8-7.168 0-13 5.832-13 13 0 3.675 1.54 6.992 4 9.359v22.641c0 2.757 2.243 5 5 5h13.962c-.168 1.595-.997 3.041-2.296 4h-2.666c-2.757 0-5 2.243-5 5 0 1.654 1.346 3 3 3h30c1.654 0 3-1.346 3-3 0-2.757-2.243-5-5-5h-2.666c-1.299-.959-2.128-2.405-2.296-4h13.962c2.757 0 5-2.243 5-5v-7h1c1.654 0 3-1.346 3-3v-12c0-1.654-1.346-3-3-3zm-54.479 0h3.373c.368 1.295.837 2.422 1.391 3.341-1.873-.676-3.517-1.834-4.764-3.341zm8.479-18c1.075 0 2.22 1.527 3.009 4h-6.019c.79-2.473 1.935-4 3.01-4zm3.519 6c.244 1.209.408 2.553.46 4h-7.958c.052-1.447.217-2.791.46-4zm7.43 4h-4.971c-.046-1.419-.184-2.763-.409-4h4.216c.627 1.221 1.035 2.57 1.164 4zm-6.97 2c-.052 1.447-.217 2.791-.46 4h-7.038c-.244-1.209-.408-2.553-.46-4zm-9.957-2h-4.971c.13-1.43.537-2.779 1.164-4h4.216c-.225 1.237-.364 2.581-.409 4zm0 2c.046 1.419.184 2.763.409 4h-4.217c-.626-1.221-1.034-2.57-1.164-4zm2.969 6h6.019c-.789 2.473-1.935 4-3.009 4s-2.221-1.527-3.01-4zm8.114 0h3.373c-1.246 1.507-2.891 2.665-4.764 3.341.554-.919 1.023-2.046 1.391-3.341zm4.681-2h-4.216c.225-1.237.363-2.581.409-4h4.971c-.13 1.43-.538 2.779-1.164 4zm-1.307-12h-3.373c-.368-1.295-.837-2.422-1.391-3.341 1.873.676 3.517 1.834 4.764 3.341zm-12.193-3.341c-.554.919-1.023 2.046-1.391 3.341h-3.374c1.247-1.507 2.891-2.665 4.765-3.341zm37.714 56.341c0 .551-.448 1-1 1h-30c-.552 0-1-.449-1-1 0-1.654 1.346-3 3-3h26c1.654 0 3 1.346 3 3zm-8.47-5h-15.06c.858-1.155 1.378-2.536 1.492-4h12.075c.115 1.464.635 2.845 1.493 4zm17.47-9c0 1.654-1.346 3-3 3h-44c-1.654 0-3-1.346-3-3v-21.063c2.023 1.299 4.422 2.063 7 2.063 7.168 0 13-5.832 13-13 0-1.034-.134-2.035-.363-3h27.363c1.654 0 3 1.346 3 3v7h-9.697l-5.361-3.574c-.419-.279-.905-.426-1.407-.426-1.397 0-2.535 1.137-2.535 2.535v1.465h-2c-1.654 0-3 1.346-3 3v12c0 1.654 1.346 3 3 3h21zm4-10c0 .551-.448 1-1 1h-24c-.552 0-1-.449-1-1v-12c0-.551.448-1 1-1h4v-3.465c0-.401.501-.667.832-.445l5.865 3.91h13.303c.552 0 1 .449 1 1z"/><path d="m40.146 25h-.291c-1.575 0-2.855 1.28-2.855 2.854 0 1.088.604 2.066 1.578 2.553l1.949.975c.292.145.473.438.473.764 0 .471-.384.854-.854.854h-.291c-.471 0-.855-.383-.855-.854v-1.146h-2v1.146c0 1.574 1.28 2.854 2.854 2.854h.291c1.575 0 2.855-1.28 2.855-2.854 0-1.088-.604-2.066-1.578-2.553l-1.949-.975c-.292-.145-.473-.438-.473-.764 0-.471.384-.854.854-.854h.291c.471 0 .855.383.855.854v.146h2v-.146c0-1.574-1.28-2.854-2.854-2.854z"/><path d="m49 32c0 .551-.448 1-1 1s-1-.449-1-1v-7h-2v7c0 1.654 1.346 3 3 3s3-1.346 3-3v-7h-2z"/><path d="m56 25h-3v10h3c1.654 0 3-1.346 3-3 0-.768-.29-1.469-.766-2 .476-.531.766-1.232.766-2 0-1.654-1.346-3-3-3zm0 8h-1v-2h1c.552 0 1 .449 1 1s-.448 1-1 1zm0-4h-1v-2h1c.552 0 1 .449 1 1s-.448 1-1 1z"/><path d="m17 40.804 10.887-6.804-10.887-6.804zm2-10 5.113 3.196-5.113 3.196z"/></g></g></svg>