<svg id="Layer_5" enable-background="new 0 0 64 64" height="512" viewBox="0 0 64 64" width="512" xmlns="http://www.w3.org/2000/svg"><g><g><g><path d="m58 14v8h-4v-7c0-.55-.45-1-1-1h-27c0-1.4-.24-2.75-.68-4h28.68c2.21 0 4 1.79 4 4z" fill="#ccd1d9"/></g><g><path d="m49 60c0 .55-.22 1.05-.59 1.41-.36.37-.86.59-1.41.59h-30c-1.1 0-2-.9-2-2s.45-2.1 1.17-2.83c.73-.72 1.73-1.17 2.83-1.17h3 20 3c2.21 0 4 1.79 4 4z" fill="#969faa"/></g><g><path d="m42 56h-20c1.87-1.25 3-3.35 3-5.61v-.39h14v.39c0 2.26 1.13 4.36 3 5.61z" fill="#aab2bd"/></g><g><path d="m10 25.32v15.68c0 .55.45 1 1 1h42c.55 0 1-.45 1-1v-3h4v8c0 2.21-1.79 4-4 4h-15-14-15c-2.21 0-4-1.79-4-4v-23.05c1.15 1.03 2.51 1.84 4 2.37z" fill="#ccd1d9"/></g><g><path d="m53 14h-27c0 2.19-.58 4.24-1.61 6.01-2.07 3.58-5.95 5.99-10.39 5.99-1.4 0-2.75-.24-4-.68v15.68c0 .55.45 1 1 1h42c.55 0 1-.45 1-1v-26c0-.55-.45-1-1-1z" fill="#69d6f4"/></g><g><circle cx="14" cy="14" fill="#4fc1e9" r="12"/></g><g><path d="m47 22h7 4 2c1.1 0 2 .9 2 2v12c0 1.1-.9 2-2 2h-2-4-18c-1.1 0-2-.9-2-2v-12c0-1.1.9-2 2-2h3v-2.46c0-.85.69-1.54 1.54-1.54.3 0 .59.09.85.26z" fill="#fcd770"/></g><g><path d="m26 34-8 5v-10z" fill="#ff826e"/></g></g><g><path d="m15 45h2v2h-2z"/><path d="m11 45h2v2h-2z"/><path d="m19 45h2v2h-2z"/><path d="m40.146 25h-.291c-1.575 0-2.855 1.28-2.855 2.854 0 1.088.604 2.066 1.578 2.553l1.949.975c.292.145.473.438.473.764 0 .471-.384.854-.854.854h-.291c-.471 0-.855-.383-.855-.854v-1.146h-2v1.146c0 1.574 1.28 2.854 2.854 2.854h.291c1.575 0 2.855-1.28 2.855-2.854 0-1.088-.604-2.066-1.578-2.553l-1.949-.975c-.292-.145-.473-.438-.473-.764 0-.471.384-.854.854-.854h.291c.471 0 .855.383.855.854v.146h2v-.146c0-1.574-1.28-2.854-2.854-2.854z"/><path d="m49 32c0 .551-.448 1-1 1s-1-.449-1-1v-7h-2v7c0 1.654 1.346 3 3 3s3-1.346 3-3v-7h-2z"/><path d="m56 25h-3v10h3c1.654 0 3-1.346 3-3 0-.768-.29-1.469-.766-2 .476-.531.766-1.232.766-2 0-1.654-1.346-3-3-3zm0 8h-1v-2h1c.552 0 1 .449 1 1s-.448 1-1 1zm0-4h-1v-2h1c.552 0 1 .449 1 1s-.448 1-1 1z"/><path d="m60 21h-1v-7c0-2.757-2.243-5-5-5h-28.003c-1.963-4.693-6.6-8-11.997-8-7.168 0-13 5.832-13 13 0 3.675 1.54 6.992 4 9.359v22.641c0 2.757 2.243 5 5 5h13.962c-.168 1.595-.997 3.041-2.296 4h-2.666c-2.757 0-5 2.243-5 5 0 1.654 1.346 3 3 3h30c1.654 0 3-1.346 3-3 0-2.757-2.243-5-5-5h-2.666c-1.299-.959-2.128-2.405-2.296-4h13.962c2.757 0 5-2.243 5-5v-7h1c1.654 0 3-1.346 3-3v-12c0-1.654-1.346-3-3-3zm-6-10c1.654 0 3 1.346 3 3v7h-2v-6c0-1.103-.897-2-2-2h-26.051c-.052-.683-.158-1.35-.313-2zm-18 28h17v2h-42v-14.363c.965.229 1.966.363 3 .363 6.83 0 12.435-5.299 12.949-12h26.051v6h-5.697l-5.361-3.574c-.419-.279-.905-.426-1.407-.426-1.397 0-2.535 1.137-2.535 2.535v1.465h-2c-1.654 0-3 1.346-3 3v12c0 1.654 1.346 3 3 3zm-30.479-18h3.373c.368 1.295.837 2.422 1.391 3.341-1.873-.676-3.517-1.834-4.764-3.341zm8.479-18c1.075 0 2.22 1.527 3.009 4h-6.019c.79-2.473 1.935-4 3.01-4zm3.519 6c.244 1.209.408 2.553.46 4h-7.958c.052-1.447.217-2.791.46-4zm7.43 4h-4.971c-.046-1.419-.184-2.763-.409-4h4.216c.627 1.221 1.035 2.57 1.164 4zm-13.958 8h6.019c-.789 2.473-1.935 4-3.009 4s-2.221-1.527-3.01-4zm-.51-2c-.244-1.209-.408-2.553-.46-4h7.958c-.052 1.447-.217 2.791-.46 4zm8.624 2h3.373c-1.246 1.507-2.891 2.665-4.764 3.341.554-.919 1.023-2.046 1.391-3.341zm4.681-2h-4.216c.225-1.237.363-2.581.409-4h4.971c-.13 1.43-.538 2.779-1.164 4zm-15.764-6h-4.971c.13-1.43.537-2.779 1.164-4h4.216c-.225 1.237-.364 2.581-.409 4zm0 2c.046 1.419.184 2.763.409 4h-4.217c-.626-1.221-1.034-2.57-1.164-4zm14.457-8h-3.373c-.368-1.295-.837-2.422-1.391-3.341 1.873.676 3.517 1.834 4.764 3.341zm-12.193-3.341c-.554.919-1.023 2.046-1.391 3.341h-3.374c1.247-1.507 2.891-2.665 4.765-3.341zm37.714 56.341c0 .551-.448 1-1 1h-30c-.552 0-1-.449-1-1 0-1.654 1.346-3 3-3h26c1.654 0 3 1.346 3 3zm-8.47-5h-15.06c.858-1.155 1.378-2.536 1.492-4h12.075c.115 1.464.635 2.845 1.493 4zm17.47-9c0 1.654-1.346 3-3 3h-44c-1.654 0-3-1.346-3-3v-21.063c.633.407 1.299.767 2 1.06v15.003c0 1.103.897 2 2 2h42c1.103 0 2-.897 2-2v-2h2zm4-10c0 .551-.448 1-1 1h-24c-.552 0-1-.449-1-1v-12c0-.551.448-1 1-1h4v-3.465c0-.401.501-.667.832-.445l5.865 3.91h13.303c.552 0 1 .449 1 1z"/><path d="m17 40.804 10.887-6.804-10.887-6.804zm2-10 5.113 3.196-5.113 3.196z"/></g></g></svg>