<svg id="_x33_0" enable-background="new 0 0 64 64" height="512" viewBox="0 0 64 64" width="512" xmlns="http://www.w3.org/2000/svg"><g><g><g><path d="m46.41 29.59c-.26.26-.62.41-1 .41-.78 0-1.41-.63-1.41-1.41v-2.59h-8c-1.1 0-2-.9-2-2v-2-12h-17c-.55 0-1 .45-1 1v43h31c.55 0 1-.45 1-1v-25z" fill="#f0d0b4"/></g><g><path d="m32 34h12v10h-12z" fill="#b4dd7f"/></g><g><path d="m26.34 36c-.22 0-.45.05-.65.13l-2.48 1.06-4.21 1.81 3 3 3 3 1.81-4.21 1.06-2.48c.08-.2.13-.43.13-.65 0-.92-.74-1.66-1.66-1.66z" fill="#aab2bd"/></g><g><path d="m10 60-.76.76c-.79.79-1.87 1.24-3 1.24-1.17 0-2.23-.48-3-1.24-.76-.77-1.24-1.83-1.24-3 0-1.13.45-2.21 1.24-3l.76-.76z" fill="#aab2bd"/></g><g><path d="m13 57-3 3-6-6 3-3 3 3z" fill="#ffeaa7"/></g><g><path d="m25 45-9 9-3 3-3-3 12-12z" fill="#fcd770"/></g><g><path d="m22 42-12 12-3-3 9-9 3-3z" fill="#b4dd7f"/></g><g><path d="m62 4v20c0 1.1-.9 2-2 2h-10l-2 2-1.59 1.59c-.26.26-.62.41-1 .41-.78 0-1.41-.63-1.41-1.41v-2.59h-8c-1.1 0-2-.9-2-2v-2-12-6c0-1.1.9-2 2-2h24c1.1 0 2 .9 2 2z" fill="#e6e9ed"/></g><g><path d="m10 27-4 6-4-6h4z" fill="#ff826e"/></g><g><path d="m58 31 4 6h-4-4z" fill="#ff826e"/></g><g><circle cx="42" cy="60" fill="#fcd770" r="2"/></g><g><circle cx="34" cy="60" fill="#fcd770" r="2"/></g><g><circle cx="26" cy="60" fill="#fcd770" r="2"/></g><g><circle cx="28" cy="4" fill="#fcd770" r="2"/></g><g><circle cx="20" cy="4" fill="#fcd770" r="2"/></g><g><path d="m50 7-.86 6.01c-.08.57-.57.99-1.14.99s-1.06-.42-1.14-.99l-.86-6.01c0-.55.45-1 1-1h2c.55 0 1 .45 1 1z" fill="#ff826e"/></g><g><circle cx="48" cy="20" fill="#ff826e" r="2"/></g></g><g><path d="m48 15c1.064 0 1.98-.794 2.131-1.848l.858-6.01.011-.142c0-1.103-.897-2-2-2h-2c-1.103 0-2 .897-2 2l.869 6.152c.151 1.054 1.067 1.848 2.131 1.848zm.99-8-.838 5.868c-.021.15-.282.15-.304 0l-.838-5.868z"/><path d="m48 23c1.654 0 3-1.346 3-3s-1.346-3-3-3-3 1.346-3 3 1.346 3 3 3zm0-4c.551 0 1 .449 1 1s-.449 1-1 1-1-.449-1-1 .449-1 1-1z"/><path d="m63.869 38-5.869-8.803-5.869 8.803h4.869v21h-10v2h10c1.103 0 2-.897 2-2v-21zm-5.869-5.197 2.131 3.197h-4.263z"/><path d="m26 57c-1.654 0-3 1.346-3 3s1.346 3 3 3 3-1.346 3-3-1.346-3-3-3zm0 4c-.551 0-1-.449-1-1s.449-1 1-1 1 .449 1 1-.449 1-1 1z"/><path d="m34 57c-1.654 0-3 1.346-3 3s1.346 3 3 3 3-1.346 3-3-1.346-3-3-3zm0 4c-.551 0-1-.449-1-1s.449-1 1-1 1 .449 1 1-.449 1-1 1z"/><path d="m42 57c-1.654 0-3 1.346-3 3s1.346 3 3 3 3-1.346 3-3-1.346-3-3-3zm0 4c-.551 0-1-.449-1-1s.449-1 1-1 1 .449 1 1-.449 1-1 1z"/><path d="m6 34.803 5.869-8.803h-4.869v-21h8v-2h-8c-1.103 0-2 .897-2 2v21h-4.869zm0-3.606-2.131-3.197h4.263z"/><path d="m28 7c1.654 0 3-1.346 3-3s-1.346-3-3-3-3 1.346-3 3 1.346 3 3 3zm0-4c.551 0 1 .449 1 1s-.449 1-1 1-1-.449-1-1 .449-1 1-1z"/><path d="m20 7c1.654 0 3-1.346 3-3s-1.346-3-3-3-3 1.346-3 3 1.346 3 3 3zm0-4c.551 0 1 .449 1 1s-.449 1-1 1-1-.449-1-1 .449-1 1-1z"/><path d="m47 55c1.103 0 2-.897 2-2v-24.586l1.414-1.414h9.586c1.654 0 3-1.346 3-3v-20c0-1.654-1.346-3-3-3h-24c-1.654 0-3 1.346-3 3v5h-16c-1.103 0-2 .897-2 2v30.586l-12.465 12.465c-.99.99-1.535 2.305-1.535 3.709 0 2.889 2.351 5.24 5.244 5.24 1.4 0 2.715-.545 3.705-1.535l6.465-6.465zm-12-51c0-.551.449-1 1-1h24c.551 0 1 .449 1 1v20c0 .551-.449 1-1 1h-10.414l-3.879 3.879c-.239.238-.707.045-.707-.293v-3.586h-9c-.551 0-1-.449-1-1zm-18 7h16v13c0 1.654 1.346 3 3 3h7v1.586c0 1.331 1.083 2.414 2.414 2.414.592 0 1.145-.22 1.586-.607v22.607h-28.586l7.429-7.429 2.941-6.863c.143-.333.216-.686.216-1.049 0-1.466-1.193-2.659-2.659-2.659-.363 0-.716.073-1.048.215l-6.864 2.941-1.429 1.43zm9.947 26.919-.478 1.116-1.504-1.504 1.117-.479c.411-.177.918.154.918.607 0 .09-.018.177-.053.26zm-3.962.461 2.635 2.635-.957 2.234-3.911-3.911zm-3.985 2.034 1.586 1.586-10.586 10.586-1.586-1.586zm-7.414 16.586-1.586 1.586-4.586-4.586 1.586-1.586zm-.172-3 10.586-10.586 1.586 1.586-10.586 10.586zm-5.174 7c-1.786 0-3.24-1.454-3.24-3.244 0-.866.337-1.679.949-2.291l.051-.051 4.586 4.586-.051.051c-.612.612-1.426.949-2.295.949z"/><path d="m19 13h6v2h-6z"/><path d="m27 13h4v2h-4z"/><path d="m19 17h12v2h-12z"/><path d="m19 21h6v2h-6z"/><path d="m27 21h4v2h-4z"/><path d="m19 25h4v2h-4z"/><path d="m25 25h6v2h-6z"/><path d="m31 45h14v-12h-14zm2-10h10v8h-10z"/><path d="m32.586 47c-.645 0-1.251.251-1.707.707l-.605.605c-.437-.811-1.272-1.312-2.197-1.312-1.075 0-2.026.686-2.366 1.705l-.66 1.979 1.897.633.66-1.979c.127-.38.731-.422.91-.064l1.208 2.416 2.567-2.567c.239-.241.707-.046.707.291v1.586h12v-2h-10.036c-.196-1.135-1.188-2-2.378-2z"/><path d="m19 29h12v2h-12z"/></g></g></svg>